<svg width="1080" height="1080" viewBox="0 0 1080 1080" fill="none" xmlns="http://www.w3.org/2000/svg">
<g clip-path="url(#clip0_4577_231)">
<rect width="1080" height="1080" fill="#85CCFF"/>
<rect width="455" height="1080" fill="#69B7FF"/>
<path d="M403.443 454.158L1080 540.352V1080H-1V628.419C-1 628.419 277.784 463.64 403.443 454.158Z" fill="#499EFF"/>
<path d="M372 1081L728 495.5L1080 540V1081H372Z" fill="#69B7FF"/>
<path d="M695.507 135.851C695.507 131.262 699.55 127.724 704.098 128.332L905.233 155.233C909.001 155.737 911.814 158.951 911.814 162.752V457.759C911.814 462.348 907.771 465.886 903.222 465.278L702.087 438.377C698.32 437.873 695.507 434.659 695.507 430.858V135.851Z" fill="#D3EBFF"/>
<path d="M931 167.668C931 163.079 935.043 159.541 939.592 160.149L1140.73 187.05C1144.49 187.554 1147.31 190.768 1147.31 194.569V489.575C1147.31 494.164 1143.26 497.703 1138.72 497.094L937.58 470.193C933.813 469.69 931 466.475 931 462.674V167.668Z" fill="#D3EBFF"/>
<path d="M695.507 -193.149C695.507 -197.738 699.55 -201.276 704.098 -200.668L905.233 -173.767C909.001 -173.263 911.814 -170.049 911.814 -166.248V128.759C911.814 133.348 907.771 136.886 903.222 136.278L702.087 109.377C698.32 108.873 695.507 105.659 695.507 101.858V-193.149Z" fill="#D3EBFF"/>
<path d="M931 -161.332C931 -165.921 935.043 -169.459 939.592 -168.851L1140.73 -141.95C1144.49 -141.446 1147.31 -138.232 1147.31 -134.431V160.575C1147.31 165.164 1143.26 168.703 1138.72 168.094L937.58 141.193C933.813 140.69 931 137.475 931 133.674V-161.332Z" fill="white"/>
<path d="M-1 1079.78H689.323L765.182 897.937L1015.77 700.014C1020.16 696.005 1018.44 688.727 1012.72 687.11L637.157 580.973C635.17 580.411 633.04 580.684 631.259 581.728L272.486 791.946C271.279 792.654 270.291 793.681 269.631 794.915L-1 1079.78Z" fill="#2462FF"/>
<path d="M1017.68 708.353L678.249 921.173C672.607 924.71 665.277 920.655 665.277 913.996C665.277 911.147 666.709 908.488 669.089 906.921L1005.4 685.381C1012.95 680.407 1023.01 685.823 1023.01 694.865V698.732C1023.01 702.641 1021 706.276 1017.68 708.353Z" fill="#1744D8"/>
<path d="M273.075 809.641L652.975 922.802C659.111 924.63 665.276 920.033 665.276 913.631C665.276 909.444 662.554 905.743 658.557 904.496L279.7 786.271C272.388 783.989 264.96 789.452 264.96 797.112V798.757C264.96 803.78 268.261 808.207 273.075 809.641Z" fill="#69B7FF"/>
<path d="M1014.21 667.327L646.986 575.521C644.148 574.812 641.146 575.225 638.605 576.674L282.695 779.675C273.964 784.655 275.529 797.686 285.191 800.456L660.399 908.033C663.503 908.923 666.84 908.449 669.574 906.73L1017.5 687.958C1025.97 682.633 1023.91 669.753 1014.21 667.327Z" fill="#D3EBFF"/>
<path d="M462.28 851.23L642.564 574.416L270.988 786.351C266.623 788.841 267.406 795.357 272.237 796.742L462.28 851.23Z" fill="#85CCFF"/>
<path d="M236.194 775.137L102.151 334.343C99.5172 325.681 104.119 316.471 112.628 313.377L128.684 307.539L279.157 781.671L270.523 787.427C257.854 795.874 240.624 789.706 236.194 775.137Z" fill="#2462FF"/>
<path d="M640.062 565.817L529.462 185.459C527.66 179.262 521.062 175.81 514.944 177.864L122.145 309.694C116.305 311.654 113.092 317.912 114.904 323.8L255.113 779.48C257.251 786.43 265.278 789.608 271.594 786.005L634.784 578.852C639.346 576.25 641.529 570.86 640.062 565.817Z" fill="#A8D8FF"/>
<path d="M503.547 217.801L153.096 340.859C147.377 342.868 144.243 349.014 145.977 354.823L252.602 712.017C254.612 718.75 262.193 722.06 268.498 718.958L605.575 553.095C610.541 550.651 613.022 544.982 611.448 539.676L518.197 225.286C516.351 219.062 509.672 215.65 503.547 217.801Z" fill="white"/>
<path d="M593.298 520.297L251.327 672.581C246.129 674.895 243.446 680.7 245.052 686.159L252.637 711.948C254.625 718.708 262.224 722.044 268.546 718.933L605.944 552.912C610.745 550.55 613.245 545.158 611.948 539.968L608.935 527.917C607.223 521.069 599.745 517.425 593.298 520.297Z" fill="#85CCFF"/>
<path d="M838.362 646.5L649.885 601.193C647.19 600.545 644.351 600.903 641.901 602.2L615.216 616.328C614.066 616.937 613.093 617.83 612.388 618.924L477.582 828.158C476.895 829.223 477.427 830.649 478.643 831.005L508.235 839.663C511.243 840.543 514.481 840.144 517.185 838.559L838.878 649.98C840.35 649.117 840.022 646.899 838.362 646.5Z" fill="#85CCFF"/>
<path d="M475.837 830.184L613.463 618.561L321.403 785.001L475.837 830.184Z" fill="#69B7FF"/>
</g>
<defs>
<clipPath id="clip0_4577_231">
<rect width="1080" height="1080" fill="white"/>
</clipPath>
</defs>
</svg>
